<svg t="1781433379507" class="icon" viewBox="0 0 1024 1024" version="1.1" xmlns="http://www.w3.org/2000/svg" p-id="4475" width="24" height="24"><path d="M111.632 618.72c-0.16-104.672-0.272-209.344-0.272-314 0-13.76 7.232-24.496 19.312-31.408a14549.856 14549.856 0 0 1 128.944-73.44c67.04-37.728 134.176-75.264 201.36-112.96 6.976-3.776 13.76-7.728 20.272-12.24 18.368-12.304 36.8-14.752 56.672-3.232 25.776 15.088 51.776 29.792 77.728 44.48 82.944 46.992 166.128 93.92 249.12 140.864 9.312 5.232 18.768 10.304 27.904 15.696 13.36 7.904 20.272 19.488 20.272 34.8 0 136.4 0.272 272.688-0.112 409.024a37.76 37.76 0 0 1-20.608 34.128c-32.736 18.656-66.416 35.904-98.544 55.344-46.032 27.84-94.192 51.776-140.128 79.936-27.392 16.704-56.112 31.408-84 46.992-12.368 6.96-24.56 14.032-36.752 21.216a37.136 37.136 0 0 1-39.584 0.72l-159.616-90.192c-58.336-32.848-116.64-65.632-174.8-98.544-10.528-5.952-20.944-11.792-31.072-18.368a34.512 34.512 0 0 1-16.096-30.112c-0.16-32.08 0.112-64.192 0.288-96.272 1.504-0.544 1.504-1.488-0.288-2.448zM447.68 410.592c2.064-1.68 4.16-3.392 6.4-4.736 64.992-36.592 130-73.152 195.024-109.68 2.608-1.552 6.128-1.552 6.24-5.728 0.112-4.448-3.904-4.4-6.4-5.728-38.304-21.712-76.896-43.2-115.088-65.36-15.808-9.248-30.944-7.92-45.648 0.544-43.312 24.448-86.176 49.44-129.376 74.224-30.08 17.248-60.528 34.24-90.752 51.328-17.376 9.792-25.952 23.376-25.664 44.096 0.832 82.608 0.56 165.28 0.112 247.904-0.112 18.656 8.736 31.008 23.888 39.856a3629.92 3629.92 0 0 0 89.632 50.672c10.288 5.568 19.872 12.912 33.728 17.04v-247.04c6.128 18.112 17.536 31.408 34.576 41.216 26.224 14.912 59.568 11.52 81.344-9.696 25.44-24.544 27.04-58 12.08-83.168-15.424-26.24-41.088-34.624-70.096-35.744z m77.712 396.496c13.472-3.504 24.496-12.912 36.688-19.712 38.592-21.44 76.608-43.968 115.472-65.12 25.392-13.824 49.824-29.184 76.048-41.712 15.808-7.456 27.888-20.768 27.888-40.08 0.16-85.744 0.288-171.424 0.16-257.216 0-10.288-4.832-12.912-13.072-6.512-24.944 19.152-54 31.792-81.168 47.328-51.392 29.344-102.88 58.448-154.384 87.68-8.016 4.464-11.072 9.632-10.96 18.88 0.272 88.736 0.16 177.648 0.16 266.448-0.272 3.232-1.392 7.072 3.168 10.016z" fill="currentColor" p-id="4476"></path><path d="M389.792 497.904c-5.12-40.912 13.088-68.416 57.904-87.296 29.168 1.12 54.672 9.52 70.144 35.632 14.8 25.28 13.312 58.56-12.144 83.168-21.92 21.216-55.104 24.608-81.28 9.632a72.208 72.208 0 0 1-34.624-41.184v0.048z" fill="currentColor" p-id="4477"></path></svg>