<svg width="24" height="24" viewBox="0 0 24 24" fill="none" xmlns="http://www.w3.org/2000/svg">
<g clip-path="url(#clip0_673_21)">
<path d="M23.9457 10.4261C23.9015 10.3451 23.8554 10.264 23.8013 10.1749C23.4404 9.57125 23.0113 9.01219 22.5261 8.51384L22.5181 8.50572C22.46 8.447 22.4119 8.39837 22.3677 8.35383C22.0229 8.01555 21.6459 7.70155 21.245 7.42198C21.2329 7.41394 21.2209 7.40582 21.2109 7.39771C21.1958 7.38758 21.1813 7.37745 21.1667 7.36732C21.1522 7.35719 21.1377 7.34706 21.1226 7.33694C21.1176 7.33285 21.112 7.32929 21.1065 7.32572C21.101 7.32219 21.0955 7.31867 21.0905 7.31463C21.0905 7.30454 21.0905 7.29438 21.0905 7.28429C21.0905 7.2701 21.0905 7.25591 21.0905 7.24173C21.0905 7.22754 21.0905 7.21335 21.0905 7.19917C21.0825 6.71911 21.0344 6.23903 20.9522 5.77516L20.9422 5.71844C20.9321 5.66374 20.9222 5.61108 20.9121 5.56044V5.55233C20.7637 4.82512 20.5292 4.12019 20.2103 3.45375C20.1743 3.37475 20.1321 3.2917 20.0841 3.19851L20.0359 3.10534L19.9377 3.06887C19.8494 3.03444 19.7592 3.00203 19.671 2.97367C19.3462 2.86023 19.0114 2.76705 18.6806 2.69413C18.3437 2.61918 17.9989 2.56448 17.652 2.53005C17.5818 2.52195 17.5077 2.51587 17.4294 2.50979C16.9121 2.47131 16.3868 2.47738 15.8676 2.53207C15.8374 2.5341 15.8054 2.53815 15.7753 2.5422C15.7693 2.5341 15.7633 2.526 15.7553 2.51992C15.4345 2.14112 15.0816 1.78866 14.7086 1.47265C14.6505 1.42404 14.5924 1.37542 14.5382 1.33086L14.5342 1.32681C13.9547 0.860905 13.3192 0.465902 12.6435 0.155976C12.5633 0.119514 12.4771 0.0810263 12.3808 0.0405132L12.2866 0L12.1904 0.0344362C12.1851 0.0363057 12.1798 0.0382161 12.1743 0.0401657C12.1023 0.0656796 12.0113 0.0979385 11.9237 0.133694C11.2761 0.386901 10.6565 0.715054 10.0871 1.11006L9.99488 1.17488C9.96281 1.19716 9.93276 1.21944 9.90467 1.24173C9.45957 1.56584 9.04256 1.93451 8.66356 2.33558C8.17038 2.25051 7.6691 2.20797 7.17188 2.20797C7.0997 2.20797 7.02353 2.20797 6.94731 2.21202C6.20546 2.22823 5.46562 2.33963 4.74583 2.5422C4.65761 2.56651 4.56538 2.59487 4.47114 2.62525L4.3749 2.65767L4.32277 2.74477C4.28344 2.81042 4.24411 2.88048 4.2023 2.95497C4.19508 2.96783 4.18779 2.98081 4.18042 2.99393C3.84157 3.61378 3.5749 4.27414 3.38644 4.96084C3.36639 5.03579 3.34834 5.10871 3.3303 5.18164C3.19997 5.70831 3.11577 6.25119 3.08168 6.79811C2.64659 7.05738 2.22955 7.35317 1.8466 7.67924C1.78846 7.72787 1.73232 7.7765 1.67417 7.82718C1.1228 8.31939 0.629569 8.88254 0.212529 9.49834L0.206514 9.50645C0.150374 9.58748 0.10025 9.66441 0.0541349 9.73937L0 9.82646L0.000164928 9.82752L0.01604 9.92979C0.0269295 9.99855 0.0387432 10.0636 0.0502263 10.1268C0.0556574 10.1567 0.0610146 10.1861 0.066165 10.2154C0.202504 10.9183 0.423054 11.607 0.719793 12.2593L0.723804 12.2674C0.755883 12.3362 0.787963 12.4031 0.820042 12.47L0.866159 12.5652C1.08871 13.0088 1.35137 13.4383 1.64409 13.8393C1.47167 14.3295 1.33934 14.838 1.25313 15.3464V15.3504C1.24133 15.4239 1.22953 15.4954 1.21774 15.5669C1.21751 15.5683 1.21727 15.5698 1.21703 15.5712C1.11077 16.2985 1.09272 17.0378 1.1649 17.7711C1.16566 17.7783 1.16642 17.7855 1.16717 17.7927C1.17645 17.8809 1.18586 17.9704 1.19698 18.0547L1.21102 18.158L1.28922 18.2269C1.36339 18.2917 1.43557 18.3525 1.50776 18.4112L1.51778 18.4193C2.07517 18.8731 2.68669 19.258 3.34032 19.5658L3.36439 19.578C3.37307 19.5821 3.38153 19.5861 3.38999 19.5902C3.40692 19.5983 3.42386 19.6064 3.44258 19.6145L3.54684 19.661C4.02402 19.8717 4.52127 20.0419 5.02853 20.1655C5.21098 20.6637 5.43755 21.1459 5.70221 21.5996L5.73028 21.6462C5.76035 21.6969 5.79043 21.7475 5.8205 21.7982C6.19945 22.414 6.65058 22.9831 7.16384 23.4896C7.23602 23.5604 7.30617 23.6273 7.37039 23.6861L7.44655 23.759H7.55081C7.64507 23.759 7.74128 23.759 7.83554 23.759C8.17038 23.7529 8.50921 23.7266 8.84006 23.682C9.17288 23.6374 9.50967 23.5726 9.84255 23.4875L9.97483 23.4531C9.99632 23.4471 10.0176 23.4412 10.0389 23.4354C10.089 23.4216 10.1387 23.408 10.1894 23.3923C10.6866 23.2445 11.1758 23.052 11.643 22.8191C11.653 22.8251 11.6631 22.8312 11.6731 22.8352C11.677 22.8372 11.6813 22.8397 11.6857 22.8421C11.6904 22.8447 11.695 22.8474 11.6991 22.8494C12.1462 23.1006 12.6134 23.3153 13.0906 23.4855C13.1267 23.4976 13.1608 23.5098 13.1969 23.524L13.3051 23.5604C13.9808 23.7833 14.6826 23.9231 15.3944 23.9778L15.5367 23.9879C15.559 23.9888 15.5818 23.9903 15.6048 23.9918C15.6294 23.9933 15.6542 23.9949 15.679 23.996L15.7377 23.9982L15.7834 24L15.7855 23.9982L15.8635 23.9332C15.9477 23.8643 16.0159 23.8056 16.0801 23.7488C16.5853 23.3032 17.0424 22.8008 17.4374 22.2519L17.5156 22.1405V22.1364C17.5598 22.0757 17.6018 22.0149 17.642 21.9521C17.8024 21.707 17.9507 21.4578 18.0831 21.2087L18.1332 21.1114C18.2134 20.9554 18.2916 20.7934 18.3658 20.6253C18.3688 20.6192 18.3718 20.6126 18.3748 20.606C18.3778 20.5995 18.3808 20.5929 18.3838 20.5868C18.3868 20.5808 18.3893 20.5747 18.3918 20.5687C18.3924 20.5672 18.3929 20.5658 18.3935 20.5644C18.3946 20.5618 18.3957 20.5592 18.3968 20.5567C18.3978 20.5545 18.3988 20.5524 18.3998 20.5503C18.4059 20.5503 18.4099 20.5503 18.4159 20.5483C18.4219 20.5483 18.4259 20.5483 18.432 20.5463C18.4388 20.5453 18.4461 20.5438 18.4534 20.5423C18.4611 20.5408 18.4689 20.5392 18.4761 20.5382C18.4957 20.5349 18.5147 20.531 18.5335 20.5271C18.5493 20.5239 18.5648 20.5207 18.5803 20.5179C19.0415 20.4227 19.4966 20.291 19.9317 20.1269L20.0359 20.0864C20.0544 20.0792 20.0724 20.0719 20.0904 20.0647C20.1075 20.0578 20.1246 20.0508 20.1422 20.0439C20.8039 19.7745 21.4314 19.4261 22.0109 19.0068L22.1271 18.9217L22.3216 18.7698L22.3397 18.6705C22.3497 18.624 22.3577 18.5773 22.3658 18.5287L22.3898 18.3869C22.498 17.682 22.5241 16.9649 22.468 16.2559C22.4623 16.1787 22.4547 16.0997 22.4488 16.0381C22.4485 16.035 22.4482 16.032 22.4479 16.0291C22.4198 15.7616 22.3797 15.4902 22.3257 15.2208C22.2835 15.0101 22.2334 14.7975 22.1772 14.5868C22.1759 14.5819 22.1745 14.5773 22.1732 14.5728C22.1724 14.5703 22.1717 14.5678 22.1709 14.5653C22.169 14.5591 22.1671 14.5529 22.1652 14.5463C22.1632 14.5392 22.1612 14.5326 22.1592 14.526C22.1579 14.5216 22.1565 14.5172 22.1552 14.5127C22.1545 14.5104 22.1539 14.5081 22.1532 14.5058C22.1502 14.4936 22.1467 14.4815 22.1432 14.4693C22.1397 14.4571 22.1362 14.445 22.1332 14.4328C22.1532 14.4085 22.1733 14.3842 22.1933 14.3599C22.2013 14.3498 22.2113 14.3376 22.2194 14.3275C22.2274 14.3174 22.2374 14.3052 22.2454 14.2951C22.5121 13.9568 22.7547 13.5983 22.9693 13.2276L23.0214 13.1364C23.0575 13.0716 23.0936 13.0048 23.1296 12.9379C23.4685 12.2978 23.7331 11.6151 23.9116 10.9081L23.9457 10.7684C23.9557 10.7299 23.9637 10.6914 23.9718 10.6529L23.9998 10.5253L23.9497 10.4341L23.9457 10.4261ZM20.3146 7.72787L20.3808 7.76232L20.3868 7.76838V7.78666L20.3808 7.82915L20.3567 8.04392V8.06616C20.3146 8.57058 20.2284 9.07091 20.1001 9.55304L20.066 9.6786C20.0419 9.76569 20.0139 9.85885 19.9798 9.96423C19.9197 10.1506 19.8535 10.3349 19.7793 10.5152C19.264 10.0513 18.6966 9.64825 18.0931 9.31194H18.0891C18.057 9.29168 18.0249 9.27347 17.9948 9.25724L17.9367 9.22689C17.9367 9.22689 17.9267 9.22082 17.9226 9.21878C17.9187 9.21673 17.9146 9.21475 17.9106 9.21271L17.7683 9.1398L17.7823 8.98784C17.7903 8.9028 17.7963 8.83391 17.8004 8.76905C17.8525 8.09453 17.8324 7.42001 17.7422 6.76165C17.9768 6.80622 18.2093 6.86294 18.4359 6.92776L18.4781 6.93991C18.5534 6.96186 18.6193 6.98276 18.6818 7.0026C18.7058 7.01022 18.7294 7.01768 18.7528 7.02499C19.2199 7.17891 19.679 7.38147 20.1181 7.62462L20.2765 7.70564L20.3146 7.7259V7.72787ZM17.9588 12.9561L17.4715 13.4565L17.8004 14.2971C18.0269 14.8886 18.1873 15.5004 18.2775 16.1141L18.2835 16.1567C18.2842 16.1615 18.2848 16.1663 18.2855 16.1713C18.2889 16.1974 18.2925 16.2249 18.2976 16.2539C18.2555 16.2701 18.2154 16.2843 18.1753 16.2964C17.5958 16.4909 16.9903 16.6205 16.3788 16.6833L16.3287 16.6874C16.2946 16.6914 16.2565 16.6955 16.2164 16.6975L15.4424 16.7522L15.23 17.4328C15.2119 17.4875 15.1919 17.5483 15.1678 17.6212L15.1437 17.6901C14.9493 18.2492 14.6986 18.786 14.3999 19.2863L14.3859 19.3106C14.3618 19.3532 14.3337 19.3977 14.3016 19.4463L14.1954 19.4038C13.6099 19.1709 13.0485 18.869 12.5313 18.5105C12.5121 18.498 12.4948 18.4856 12.4775 18.4732C12.4694 18.4674 12.4613 18.4616 12.453 18.4558L12.3828 18.4072L11.7874 17.9696L11.1899 18.3646C11.1575 18.387 11.1218 18.4093 11.0796 18.4357C11.0645 18.4452 11.0485 18.4552 11.0315 18.4659C10.5062 18.786 9.95079 19.0473 9.3774 19.2438H9.37132C9.31724 19.264 9.26106 19.2843 9.20697 19.3005C9.20083 19.2902 9.19522 19.2799 9.18962 19.2696C9.1842 19.2597 9.17878 19.2497 9.17287 19.2398L9.14681 19.1891C8.85208 18.6381 8.61744 18.0487 8.44702 17.4348L8.43703 17.4004C8.43459 17.3912 8.43198 17.3813 8.42918 17.3706C8.42564 17.3572 8.42181 17.3426 8.41768 17.327C8.41431 17.3143 8.41074 17.3009 8.40698 17.287L8.22447 16.5395L7.69118 16.4726C7.60293 16.4625 7.51475 16.4504 7.4265 16.4382C7.40945 16.4362 7.39242 16.4337 7.37539 16.4311C7.35835 16.4286 7.34132 16.4261 7.32427 16.4241C7.02151 16.3774 6.71875 16.3106 6.422 16.2296C6.1393 16.1526 5.85659 16.0594 5.58592 15.9541L5.54381 15.9379C5.50943 15.9249 5.47505 15.9108 5.43993 15.8964C5.4259 15.8907 5.41176 15.8849 5.39745 15.8791C5.40547 15.8346 5.41549 15.786 5.42753 15.7292L5.45359 15.6118C5.5779 15.0446 5.76436 14.4875 6.00496 13.9528C6.01313 13.9335 6.02592 13.9068 6.03894 13.8795C6.0451 13.8667 6.0513 13.8537 6.0571 13.8413L6.0611 13.8332C6.10684 13.7351 6.14353 13.6368 6.17633 13.549C6.17803 13.5445 6.17972 13.5399 6.1814 13.5354L6.35985 13.0554L6.00897 12.6968L5.91875 12.6016C5.87263 12.551 5.83053 12.5044 5.79043 12.4558C5.58391 12.2147 5.38943 11.9636 5.21098 11.7063C5.04457 11.4632 4.89018 11.214 4.75585 10.9649L4.72176 10.9001C4.70372 10.8657 4.68567 10.8312 4.66763 10.7968C4.66763 10.794 4.66584 10.7913 4.66405 10.7886C4.66316 10.7873 4.66228 10.786 4.66162 10.7846L4.68166 10.7684L4.80999 10.6651C5.25309 10.3147 5.73629 10.0088 6.24757 9.75355L6.36988 9.69483C6.42601 9.66646 6.47614 9.64415 6.52626 9.62185L7.14581 9.34434V8.6617C7.14581 8.64349 7.14581 8.62726 7.14581 8.61314V8.5564C7.14183 8.51179 7.1398 8.47332 7.1398 8.43691V8.4146C7.12778 7.81299 7.17789 7.20933 7.29017 6.62391L7.32022 6.47401C7.32427 6.4497 7.33028 6.42539 7.33629 6.40108C7.39841 6.40108 7.46458 6.40311 7.5448 6.40716L7.65911 6.41121C8.21447 6.4416 8.77389 6.5287 9.32122 6.6705C9.37552 6.68461 9.42266 6.69751 9.46537 6.70919C9.47784 6.7126 9.48992 6.71591 9.5017 6.71911L10.1994 6.92776L10.6686 6.28765C10.6686 6.28765 10.6846 6.26739 10.6926 6.25523L10.7628 6.17016C11.1377 5.70425 11.5588 5.27887 12.012 4.90818L12.1162 4.82512C12.1288 4.81381 12.1424 4.80348 12.1555 4.79345C12.1612 4.78911 12.1669 4.78484 12.1723 4.78056L12.1864 4.79271C12.2265 4.82714 12.2666 4.86361 12.3127 4.90615L12.3307 4.92236C12.7698 5.32546 13.1688 5.77921 13.5197 6.2755L13.5578 6.32816L13.5618 6.33221C13.5838 6.3626 13.6059 6.39501 13.6279 6.42944L14.0149 7.02094L14.7007 6.87712C14.7307 6.87104 14.7607 6.86496 14.7888 6.85686C14.8269 6.84876 14.867 6.84066 14.9092 6.83255C15.5447 6.70696 16.1944 6.65429 16.8239 6.67658H16.8399C16.862 6.67658 16.8841 6.67657 16.9061 6.6786C16.9121 6.71129 16.9174 6.74688 16.9233 6.78623C16.9272 6.81271 16.9314 6.84089 16.9362 6.87104C17.0184 7.47061 17.0364 8.08641 16.9883 8.70023V8.73263L16.9863 8.7387C16.9849 8.76998 16.9815 8.80531 16.9775 8.84673C16.9759 8.86427 16.9741 8.88291 16.9723 8.9028L16.9021 9.61988L17.5257 9.93586C17.5257 9.93586 17.5437 9.94602 17.5537 9.95209L17.7061 10.0351C18.2174 10.3187 18.7006 10.659 19.1437 11.0439L19.254 11.1432C19.28 11.1654 19.3041 11.1877 19.3282 11.21C19.3144 11.2343 19.2994 11.2593 19.283 11.2864C19.2708 11.3068 19.2577 11.3283 19.244 11.3518C18.7848 12.1074 18.1753 12.7414 18.1071 12.8123C18.0664 12.8548 18.0307 12.8904 18.0026 12.9183C17.9905 12.9303 17.9798 12.9409 17.9708 12.9501L17.9648 12.9561H17.9588ZM6.31975 8.43691V8.44298C6.31975 8.49358 6.31975 8.55033 6.32376 8.61512V8.62528C6.32376 8.62528 6.32376 8.62726 6.32376 8.6334C6.32376 8.6334 6.32376 8.63947 6.32376 8.64554C6.32376 8.65161 6.32376 8.65768 6.32376 8.66579V8.81161L6.19143 8.87033C6.14431 8.89101 6.09596 8.91411 6.04445 8.93872C6.03021 8.94553 6.01572 8.95245 6.00095 8.95947L5.88266 9.01622C5.35133 9.28159 4.84608 9.59757 4.38092 9.95611C4.32277 9.77585 4.26863 9.5915 4.22252 9.40715L4.2145 9.37476C4.19044 9.2775 4.16839 9.17826 4.14834 9.07903C4.04809 8.59288 3.99194 8.09248 3.98192 7.59017L3.96989 7.28831L4.23655 7.16473H4.24057C4.72577 6.92978 5.23504 6.74545 5.75835 6.61176C5.85259 6.58745 5.94883 6.56517 6.04907 6.54491C6.19344 6.51452 6.3378 6.48616 6.48215 6.46388C6.35784 7.1101 6.3037 7.77043 6.31774 8.43281L6.31975 8.43691ZM17.3673 3.33019C17.3861 3.33181 17.4044 3.3333 17.4225 3.33475C17.4717 3.33872 17.5182 3.34248 17.5638 3.34842H17.5698C17.8846 3.38083 18.1993 3.42944 18.5061 3.49832C18.8068 3.56314 19.1096 3.65024 19.4064 3.75152H19.4124C19.4157 3.75296 19.4189 3.7544 19.4221 3.75582C19.4322 3.76037 19.4418 3.76464 19.4525 3.76773C19.4585 3.78191 19.4645 3.79609 19.4725 3.81229C19.7592 4.41189 19.9718 5.04794 20.1061 5.70223L20.1101 5.72654C20.1222 5.78934 20.1342 5.85213 20.1462 5.91492L20.1762 6.09724C20.2103 6.31601 20.2344 6.54086 20.2504 6.76368C19.8475 6.55706 19.4304 6.38285 19.0074 6.24105C18.9131 6.20865 18.8128 6.17826 18.6945 6.14383L18.6625 6.1337H18.6565C18.3357 6.04052 18.0068 5.96556 17.6781 5.91087C17.5998 5.63538 17.5056 5.35787 17.3973 5.08643V5.08035C17.3811 5.04274 17.365 5.00381 17.3481 4.96329C17.3232 4.90343 17.2969 4.8401 17.267 4.77245C17.0445 4.26604 16.7738 3.77583 16.461 3.31398C16.7638 3.30183 17.0665 3.3079 17.3673 3.33019ZM15.5327 3.41323L15.5351 3.41563L15.5367 3.41729H15.5427L15.6931 3.64416L15.7051 3.66037C16.0259 4.11614 16.2986 4.60027 16.5191 5.10466V5.11074C16.5593 5.19582 16.5913 5.27279 16.6194 5.34571L16.6355 5.3842C16.6956 5.54018 16.7538 5.69615 16.8039 5.85416C16.1202 5.8339 15.4264 5.89264 14.7468 6.02634C14.6986 6.03647 14.6505 6.0466 14.6024 6.05672C14.5903 6.06006 14.5776 6.06278 14.5646 6.06557C14.5539 6.06786 14.5431 6.07019 14.5322 6.07293L14.3859 6.10331L14.3036 5.97772C14.2616 5.91492 14.2234 5.85821 14.1834 5.80352V5.79947C13.8064 5.26874 13.3773 4.77853 12.9061 4.34302C13.0826 4.24578 13.2631 4.1526 13.4435 4.06955L13.5758 4.0108C13.654 3.97637 13.7402 3.93991 13.8505 3.89534L13.8886 3.88116C14.3277 3.70898 14.7849 3.57327 15.25 3.48008L15.5351 3.41563L15.5367 3.41526L15.5327 3.41323ZM10.3779 1.90817L10.3818 1.90412L10.3829 1.90332C10.4067 1.88536 10.4304 1.86742 10.4561 1.85146L10.5463 1.78865C11.0635 1.43012 11.625 1.13234 12.2144 0.901417H12.2205C12.2307 0.895509 12.2399 0.891754 12.2495 0.887798C12.2531 0.886329 12.2568 0.884832 12.2606 0.883187C12.2676 0.886225 12.2751 0.88977 12.2826 0.893315C12.2901 0.89686 12.2976 0.900405 12.3047 0.903443C12.9121 1.18298 13.4856 1.53545 14.0089 1.95476L14.0209 1.96489C14.038 1.97908 14.0551 1.99307 14.072 2.00688C14.1105 2.03843 14.1479 2.06899 14.1813 2.09858C14.4099 2.29305 14.6304 2.50169 14.839 2.72249C14.3979 2.82377 13.9648 2.95949 13.5477 3.12762L13.5398 3.13167C13.4234 3.17826 13.3292 3.21878 13.243 3.25726L13.1026 3.32006L13.0806 3.33019C12.8119 3.45577 12.5433 3.59757 12.2866 3.75152C12.0521 3.59352 11.8074 3.44362 11.5588 3.3079L11.5388 3.29575C11.5206 3.28618 11.5023 3.27644 11.4835 3.26652C11.4111 3.2281 11.3333 3.18687 11.244 3.1418L11.236 3.13775C10.7227 2.88454 10.1814 2.67995 9.62601 2.52802C9.86456 2.3052 10.1152 2.09858 10.3779 1.90615V1.90817ZM8.87409 3.4659L9.05653 3.22688L9.32925 3.30588L9.3433 3.30993C9.87463 3.4497 10.3919 3.64214 10.8811 3.88522L10.9232 3.90547C10.9723 3.93125 11.0195 3.95509 11.0628 3.97699C11.0637 3.97746 11.0646 3.97793 11.0656 3.97839L11.1498 4.02498C11.2781 4.09386 11.4044 4.16678 11.5287 4.24376L11.4966 4.27009C10.9874 4.68535 10.5162 5.16138 10.1012 5.68197L10.0511 5.74275C10.035 5.763 10.0209 5.78123 10.007 5.79947L9.87463 5.97772L9.72621 5.93316C9.65808 5.9129 9.59191 5.89467 9.51973 5.87644C8.91825 5.72047 8.30266 5.62526 7.69314 5.59285H7.65108C7.73325 5.37812 7.82751 5.16746 7.92778 4.96084C7.97187 4.86968 8.01799 4.77853 8.06613 4.6894L8.07612 4.67117C8.30468 4.24781 8.57335 3.84268 8.87214 3.4659H8.87409ZM4.12027 5.37812C4.12601 5.35636 4.13176 5.3333 4.13769 5.30949C4.14831 5.26683 4.15953 5.22179 4.1724 5.17759C4.34282 4.55368 4.58542 3.95409 4.89419 3.38893L4.91826 3.34639C4.93429 3.34234 4.95034 3.33829 4.96437 3.33221C5.618 3.14787 6.28967 3.04659 6.96335 3.03241H6.97741C7.04156 3.03039 7.10969 3.02836 7.16985 3.02836C7.49064 3.02836 7.81144 3.04862 8.13223 3.08711C7.84155 3.46793 7.58092 3.87509 7.35432 4.29642V4.30047C7.30017 4.39771 7.25007 4.49696 7.20395 4.59217C7.04359 4.91628 6.9032 5.25254 6.78692 5.59082C6.78692 5.59082 6.78692 5.59285 6.78692 5.59487C6.75884 5.5969 6.73077 5.60095 6.7027 5.605C6.43002 5.63741 6.15935 5.68197 5.89068 5.74072C5.78041 5.763 5.67214 5.78934 5.56788 5.81567C5.01049 5.95746 4.46312 6.15395 3.94182 6.40108C3.98192 6.0547 4.04408 5.71033 4.12828 5.3761L4.12027 5.37812ZM1.59598 12.1925L1.55187 12.1013C1.52981 12.0567 1.50776 12.0121 1.48771 11.9656L1.46565 11.9169C1.19498 11.3234 0.992472 10.6955 0.868165 10.0493C0.86616 10.0351 0.862149 10.0189 0.858138 10.0027L0.956382 9.85885C1.32129 9.33827 1.74234 8.86228 2.21151 8.44495C2.26564 8.39639 2.31778 8.35179 2.3699 8.30725C2.62253 8.09248 2.8912 7.89197 3.1719 7.70762C3.18995 8.2282 3.2501 8.74682 3.35436 9.25117C3.37641 9.35852 3.40047 9.46792 3.42654 9.57125V9.57527C3.50674 9.89739 3.60298 10.2154 3.71526 10.5253C3.71726 10.5314 3.71977 10.538 3.72227 10.5446C3.72478 10.5511 3.72729 10.5577 3.72929 10.5638C3.73004 10.566 3.73106 10.5686 3.73215 10.5713C3.734 10.5759 3.73605 10.581 3.73731 10.5861C3.72929 10.5942 3.72127 10.6023 3.71325 10.6124C3.70549 10.6223 3.69585 10.632 3.68614 10.6419L3.68518 10.6428C3.48468 10.8555 3.29221 11.0844 3.10975 11.3234L3.01151 11.4551C2.97742 11.4997 2.94534 11.5442 2.91326 11.5909C2.59447 12.0426 2.31377 12.5267 2.08119 13.029C1.90274 12.7596 1.74034 12.4801 1.59598 12.1925ZM3.87165 18.9034L3.7734 18.8589C3.76748 18.8562 3.7617 18.8536 3.75598 18.851C3.74043 18.8441 3.72537 18.8374 3.70925 18.8285L3.68318 18.8163C3.0877 18.5348 2.5263 18.1803 2.01903 17.7671L1.98294 17.7367L1.97693 17.686C1.91076 17.0196 1.9268 16.3471 2.02304 15.6867V15.6806C2.03165 15.6198 2.04173 15.5589 2.05076 15.5044C2.05224 15.4954 2.0537 15.4866 2.05512 15.478V15.4619C2.11327 15.1418 2.18946 14.8217 2.28369 14.5078C2.64459 14.921 3.04559 15.2998 3.47265 15.6381L3.60499 15.7394C3.64909 15.7738 3.6932 15.8062 3.73932 15.8386C3.98393 16.0169 4.24057 16.185 4.50322 16.339C4.51525 16.3461 4.52778 16.3532 4.54031 16.3602C4.55284 16.3673 4.56537 16.3744 4.5774 16.3815C4.5774 16.3896 4.5774 16.3997 4.5774 16.4079C4.55736 16.734 4.55335 17.0642 4.56939 17.3923C4.57325 17.4936 4.58081 17.6005 4.58852 17.7095C4.58882 17.7139 4.58913 17.7182 4.58944 17.7225C4.63154 18.237 4.71775 18.7516 4.84608 19.2559C4.51525 19.1587 4.18844 19.0392 3.87165 18.8994V18.9034ZM5.26312 13.6145C4.99845 14.2019 4.79595 14.8157 4.6576 15.4375L4.65159 15.4699C4.50322 15.3768 4.35886 15.2775 4.21851 15.1742C4.19973 15.1604 4.18203 15.1473 4.16512 15.1349C4.14232 15.118 4.12094 15.1022 4.10022 15.0871L3.9739 14.9899C3.5749 14.6759 3.20398 14.3194 2.86714 13.9345L2.66665 13.7117L2.78895 13.4524L2.79496 13.4402C3.01151 12.9602 3.27416 12.5003 3.57691 12.0729C3.60298 12.0365 3.63305 11.9939 3.66112 11.9534L3.75736 11.8258C3.85962 11.6921 3.96588 11.5625 4.07616 11.4369C4.21651 11.6901 4.37289 11.9433 4.54131 12.1864C4.7358 12.4679 4.95034 12.7455 5.1769 13.0067C5.22502 13.0635 5.27314 13.1161 5.32126 13.1688L5.39144 13.2437L5.41349 13.266C5.38542 13.343 5.35535 13.422 5.32327 13.4909C5.32074 13.4963 5.31816 13.5017 5.31554 13.5073C5.29732 13.5459 5.27739 13.5881 5.26512 13.6165L5.26312 13.6145ZM5.74632 19.4727L5.68216 19.2215L5.67214 19.181C5.5378 18.6867 5.44757 18.1763 5.40547 17.6678V17.6637C5.39915 17.5807 5.39407 17.499 5.38926 17.4214C5.38797 17.4006 5.38669 17.3801 5.38542 17.3599C5.3774 17.1614 5.37539 16.9608 5.38141 16.7624C5.65409 16.8656 5.93278 16.9568 6.21348 17.0337C6.53829 17.1229 6.87313 17.1938 7.20597 17.2465C7.22538 17.2497 7.2448 17.2524 7.26454 17.2552C7.28148 17.2575 7.29865 17.2599 7.31624 17.2627C7.32709 17.2642 7.33791 17.2658 7.3487 17.2673C7.42365 17.2779 7.49726 17.2883 7.57086 17.2971L7.61299 17.4713C7.61299 17.4713 7.61299 17.4794 7.61495 17.4814L7.619 17.4977C7.62214 17.5099 7.62518 17.5219 7.62818 17.5338C7.63861 17.5751 7.64864 17.6147 7.66107 17.6557C7.84155 18.3099 8.09017 18.942 8.4009 19.5314C8.23655 19.5557 8.07214 19.5719 7.9057 19.5861C7.79942 19.5942 7.7032 19.6003 7.60496 19.6044C7.49665 19.6084 7.38443 19.6104 7.2741 19.6104C6.8651 19.6104 6.45007 19.578 6.04105 19.5152L5.74632 19.4768V19.4727ZM9.95282 22.5982C9.89063 22.6165 9.82648 22.6347 9.76632 22.651L9.63803 22.6853C9.33729 22.7623 9.03047 22.8211 8.72777 22.8596C8.42703 22.9001 8.11826 22.9244 7.81346 22.9304C7.79746 22.9304 7.78139 22.9304 7.76532 22.9304C7.75926 22.9254 7.75372 22.9198 7.74791 22.9139C7.7422 22.9081 7.73623 22.9021 7.72927 22.896C7.26411 22.4362 6.85308 21.9197 6.50822 21.3606C6.48071 21.3169 6.45514 21.2732 6.4296 21.2296C6.42907 21.2287 6.42854 21.2278 6.42802 21.2269L6.40196 21.1824C6.24356 20.9109 6.1012 20.6273 5.97288 20.3356C6.52426 20.4166 7.08565 20.447 7.63703 20.4247C7.74128 20.4207 7.85155 20.4146 7.96984 20.4044C8.28267 20.3802 8.59941 20.3376 8.91224 20.2789C9.11271 20.5564 9.32925 20.8237 9.55781 21.0709C9.63398 21.154 9.71021 21.235 9.78435 21.31C10.1232 21.6543 10.4902 21.9723 10.8791 22.258C10.5764 22.3896 10.2656 22.503 9.94876 22.5963L9.95282 22.5982ZM12.0079 21.7353C11.9646 21.7627 11.9218 21.7907 11.8796 21.8183C11.8438 21.8418 11.8083 21.8649 11.7733 21.8872L11.5468 21.7212L11.5307 21.709C11.1137 21.4194 10.7227 21.0891 10.3658 20.7245C10.2976 20.6556 10.2295 20.5848 10.1613 20.5078C10.011 20.3437 9.86659 20.1715 9.72824 19.9932C10.3257 19.7826 10.9072 19.5051 11.4565 19.1688C11.5187 19.1304 11.5768 19.0939 11.637 19.0554L11.7633 18.9703L11.8916 19.0655C11.8976 19.0696 11.9032 19.0736 11.9087 19.0777C11.9107 19.0791 11.9127 19.0806 11.9147 19.0821C11.9183 19.0847 11.9219 19.0873 11.9257 19.0898H11.9278C11.9617 19.1164 11.9957 19.1405 12.0316 19.166C12.0422 19.1735 12.0531 19.1812 12.0641 19.1891C12.6275 19.58 13.237 19.9082 13.8746 20.1634C13.7643 20.289 13.65 20.4106 13.5338 20.528L13.3994 20.6597C13.3633 20.6942 13.3272 20.7286 13.2891 20.763C12.9001 21.1216 12.4731 21.4457 12.02 21.7232L12.0039 21.7333L12.0079 21.7353ZM17.4054 20.7266L17.3572 20.8177C17.237 21.0425 17.1026 21.2695 16.9563 21.4923C16.9162 21.551 16.8761 21.6097 16.8399 21.6644L16.7698 21.7657C16.4109 22.264 15.9959 22.7218 15.5367 23.125C15.5307 23.13 15.5252 23.1351 15.5197 23.1401C15.5141 23.1452 15.5086 23.1503 15.5026 23.1553L15.4485 23.1513C14.8069 23.1006 14.1693 22.9751 13.5578 22.7745L13.4515 22.7381C13.4497 22.7374 13.4478 22.7368 13.446 22.7362C13.4178 22.7266 13.3894 22.717 13.3593 22.7056C13.0866 22.6084 12.8159 22.495 12.5533 22.3673C13.0124 22.0757 13.4475 21.7435 13.8445 21.3748C13.8645 21.3555 13.8846 21.3368 13.9046 21.318C13.9247 21.2993 13.9448 21.2806 13.9648 21.2613L14.0851 21.1459C14.3036 20.9291 14.5142 20.6942 14.7147 20.449C15.0335 20.528 15.3623 20.5908 15.6911 20.6354L15.8515 20.6556C15.8533 20.6558 15.8551 20.656 15.8569 20.6562C15.9093 20.6621 15.9616 20.668 16.0139 20.6719C16.4771 20.7164 16.9522 20.7225 17.4214 20.6942C17.4154 20.7063 17.4093 20.7184 17.4033 20.7306L17.4054 20.7266ZM18.4219 17.5544L18.4099 17.6901C18.3998 17.7913 18.3878 17.8906 18.3758 17.9858C18.3056 18.5125 18.1833 19.0331 18.0169 19.5334L17.9387 19.7927L17.9327 19.815L17.9267 19.8231L17.8144 19.8312L17.654 19.8414H17.632C17.1207 19.892 16.6014 19.892 16.0961 19.8414H16.0641C16.0325 19.8368 16.0044 19.8334 15.9788 19.8303C15.9702 19.8292 15.9619 19.8282 15.9538 19.8272L15.7973 19.8089C15.5688 19.7785 15.3422 19.738 15.1177 19.6874C15.4545 19.1222 15.7332 18.5165 15.9458 17.8865V17.8805C15.9698 17.8136 15.9919 17.7468 16.0139 17.6779L16.058 17.5341L16.2164 17.5219C16.2164 17.5219 16.2324 17.5219 16.2364 17.5219H16.2525C16.2768 17.5194 16.3008 17.5172 16.3241 17.5151C16.3566 17.5121 16.3878 17.5093 16.4169 17.5058H16.4229C17.1106 17.4389 17.7883 17.293 18.4359 17.0763C18.4399 17.0763 18.444 17.0743 18.448 17.0723C18.444 17.2343 18.4359 17.3943 18.4239 17.5524L18.4219 17.5544ZM18.5623 13.9953L18.4279 13.653L18.5342 13.5436C18.5426 13.535 18.5529 13.5248 18.5649 13.5129C18.5956 13.4824 18.6369 13.4412 18.6846 13.3917C18.8068 13.266 19.4405 12.5996 19.9357 11.7853C19.9397 11.7792 19.9437 11.7732 19.9477 11.7671C20.068 11.9169 20.1843 12.0729 20.2926 12.2289L20.3627 12.3322C20.4209 12.4173 20.473 12.4984 20.5232 12.5794L20.5833 12.6766C20.8279 13.0858 21.0405 13.5193 21.2149 13.9689L21.293 14.1533L21.3091 14.1918L21.3251 14.2303L21.3311 14.2445C21.3311 14.2445 21.3271 14.2485 21.3251 14.2505L21.3051 14.2688L21.275 14.2971L21.245 14.3275L21.1327 14.4348L21.1126 14.4531C20.7437 14.8299 20.3367 15.1742 19.9036 15.474C19.8966 15.4788 19.8895 15.4836 19.8825 15.4884C19.809 15.5386 19.7337 15.59 19.655 15.6381C19.4705 15.7556 19.278 15.8691 19.0815 15.9703C18.9813 15.2998 18.8068 14.6334 18.5603 13.9892L18.5623 13.9953ZM21.5818 18.2107L21.5677 18.3039L21.5257 18.3342C21.0003 18.713 20.4289 19.031 19.8294 19.2741H19.8234C19.7933 19.2904 19.7673 19.3005 19.7412 19.3106L19.6389 19.3491C19.3843 19.4463 19.1216 19.5294 18.855 19.6003C19.0074 19.1121 19.1176 18.6077 19.1858 18.0993C19.1998 17.9919 19.2139 17.8805 19.2239 17.7671L19.2359 17.6253C19.258 17.3579 19.268 17.0844 19.264 16.8109C19.5467 16.6691 19.8274 16.5112 20.092 16.341C20.1843 16.2822 20.2765 16.2215 20.3648 16.1587C20.7617 15.8832 21.1387 15.5753 21.4876 15.2391C21.4926 15.2614 21.4971 15.2838 21.5016 15.3061C21.5061 15.3283 21.5106 15.3505 21.5156 15.3727C21.5637 15.6198 21.6018 15.867 21.6259 16.1101C21.6319 16.1587 21.6379 16.2215 21.6419 16.2802V16.3167C21.6961 16.9466 21.674 17.5827 21.5797 18.2087L21.5818 18.2107ZM23.1156 10.6975C22.9512 11.3397 22.7126 11.9595 22.4058 12.5389C22.397 12.555 22.3886 12.5705 22.3807 12.5854C22.3763 12.5935 22.3721 12.6015 22.3679 12.6092C22.352 12.6391 22.3375 12.6663 22.3236 12.6908L22.2575 12.8062C22.1371 13.0128 22.0088 13.2134 21.8705 13.4099C21.6841 12.9703 21.4655 12.5449 21.2169 12.1438L21.2068 12.1276C21.1571 12.0472 21.1032 11.9646 21.0456 11.8762L21.0444 11.8744L21.0384 11.8643C20.854 11.5909 20.6515 11.3234 20.4369 11.0662C20.5572 10.7907 20.6655 10.5051 20.7577 10.2174C20.7958 10.102 20.8259 9.99867 20.854 9.90141L20.8901 9.76978C21.0103 9.31399 21.0986 8.844 21.1487 8.37204C21.3772 8.5523 21.5958 8.74477 21.8043 8.94733C21.8444 8.98784 21.8885 9.03245 21.9447 9.08912L22.0329 9.18031C22.4379 9.60971 22.8008 10.0878 23.1056 10.6003C23.1096 10.6075 23.1142 10.6147 23.1188 10.6219C23.1233 10.6289 23.1277 10.6359 23.1317 10.6428L23.1196 10.6955L23.1156 10.6975Z" fill="currentColor"/>
<path fill-rule="evenodd" clip-rule="evenodd" d="M12.8258 12.8335C12.5681 13.0938 12.2913 13.3233 12.0001 13.5218C11.7087 13.3232 11.4319 13.0938 11.174 12.8333C10.9162 12.573 10.6891 12.2933 10.4925 11.9992C10.6891 11.7048 10.9163 11.4252 11.1742 11.1648C11.4319 10.9044 11.7087 10.675 12 10.4764C12.2914 10.675 12.5682 10.9045 12.8261 11.1649C13.0838 11.4253 13.311 11.7048 13.5075 11.9991C13.3109 12.2934 13.0837 12.573 12.8258 12.8335Z" fill="currentColor"/>
<path fill-rule="evenodd" clip-rule="evenodd" d="M12.2866 0L12.1904 0.0344362L12.1743 0.0401657C12.1023 0.0656796 12.0113 0.0979385 11.9237 0.133694C11.2761 0.386901 10.6565 0.715054 10.0871 1.11006L9.99488 1.17488C9.96281 1.19716 9.93276 1.21944 9.90467 1.24173C9.45957 1.56584 9.04256 1.93451 8.66356 2.33558C8.17038 2.25051 7.6691 2.20797 7.17188 2.20797C7.0997 2.20797 7.02353 2.20797 6.94731 2.21202C6.20546 2.22823 5.46562 2.33963 4.74583 2.5422C4.65761 2.56651 4.56538 2.59487 4.47114 2.62525L4.3749 2.65767L4.32277 2.74477C4.28344 2.81042 4.24411 2.88048 4.2023 2.95497L4.18042 2.99393C3.84157 3.61378 3.5749 4.27414 3.38644 4.96084C3.36639 5.03579 3.34834 5.10871 3.3303 5.18164C3.19997 5.70831 3.11577 6.25119 3.08168 6.79811C2.64659 7.05738 2.22955 7.35317 1.8466 7.67924C1.78846 7.72787 1.73232 7.7765 1.67417 7.82718C1.1228 8.31939 0.629569 8.88254 0.212529 9.49834L0.206514 9.50645C0.150374 9.58748 0.10025 9.66441 0.0541349 9.73937L0 9.82646L0.000164928 9.82752L0.01604 9.92979C0.0269295 9.99855 0.0387432 10.0636 0.0502263 10.1268C0.0556574 10.1567 0.0610146 10.1861 0.066165 10.2154C0.202504 10.9183 0.423054 11.607 0.719793 12.2593L0.723804 12.2674C0.755883 12.3362 0.787963 12.4031 0.820042 12.47L0.866159 12.5652C1.08871 13.0088 1.35137 13.4383 1.64409 13.8393C1.47167 14.3295 1.33934 14.838 1.25313 15.3464V15.3504C1.24133 15.4239 1.22953 15.4954 1.21774 15.5669L1.21703 15.5712C1.11077 16.2985 1.09272 17.0378 1.1649 17.7711L1.16717 17.7927C1.17645 17.8809 1.18586 17.9704 1.19698 18.0547L1.21102 18.158L1.28922 18.2269C1.36339 18.2917 1.43557 18.3525 1.50776 18.4112L1.51778 18.4193C2.07517 18.8731 2.68669 19.258 3.34032 19.5658L3.36439 19.578C3.37307 19.5821 3.38153 19.5861 3.38999 19.5902C3.40692 19.5983 3.42386 19.6064 3.44258 19.6145L3.54684 19.661C4.02402 19.8717 4.52127 20.0419 5.02853 20.1655C5.21098 20.6637 5.43755 21.1459 5.70221 21.5996L5.73028 21.6462L5.8205 21.7982C6.19945 22.414 6.65058 22.9831 7.16384 23.4896C7.23602 23.5604 7.30617 23.6273 7.37039 23.6861L7.44655 23.759H7.55081H7.83554C8.17038 23.7529 8.50921 23.7266 8.84006 23.682C9.17288 23.6374 9.50967 23.5726 9.84255 23.4875L9.97483 23.4531C9.99632 23.4471 10.0176 23.4412 10.0389 23.4354C10.089 23.4216 10.1387 23.408 10.1894 23.3923C10.6866 23.2445 11.1758 23.052 11.643 22.8191C11.653 22.8251 11.6631 22.8312 11.6731 22.8352C11.677 22.8372 11.6813 22.8397 11.6857 22.8421C11.6904 22.8447 11.695 22.8474 11.6991 22.8494C12.1462 23.1006 12.6134 23.3153 13.0906 23.4855C13.1267 23.4976 13.1608 23.5098 13.1969 23.524L13.3051 23.5604C13.9808 23.7833 14.6826 23.9231 15.3944 23.9778L15.5367 23.9879C15.559 23.9888 15.5818 23.9903 15.6048 23.9918C15.6294 23.9933 15.6542 23.9949 15.679 23.996L15.7377 23.9982H15.7855L15.8635 23.9332C15.9477 23.8643 16.0159 23.8056 16.0801 23.7488C16.5853 23.3032 17.0424 22.8008 17.4374 22.2519L17.5156 22.1405V22.1364C17.5598 22.0757 17.6018 22.0149 17.642 21.9521C17.8024 21.707 17.9507 21.4578 18.0831 21.2087L18.1332 21.1114C18.2134 20.9554 18.2916 20.7934 18.3658 20.6253C18.3688 20.6192 18.3718 20.6126 18.3748 20.606C18.3778 20.5995 18.3808 20.5929 18.3838 20.5868C18.3868 20.5808 18.3893 20.5747 18.3918 20.5687L18.3935 20.5644L18.3968 20.5567L18.3998 20.5503C18.4059 20.5503 18.4099 20.5503 18.4159 20.5483C18.4219 20.5483 18.4259 20.5483 18.432 20.5463C18.4388 20.5453 18.4461 20.5438 18.4534 20.5423C18.4611 20.5408 18.4689 20.5392 18.4761 20.5382C18.4957 20.5349 18.5147 20.531 18.5335 20.5271C18.5493 20.5239 18.5648 20.5207 18.5803 20.5179C19.0415 20.4227 19.4966 20.291 19.9317 20.1269L20.0359 20.0864C20.0544 20.0792 20.0724 20.0719 20.0904 20.0647C20.1075 20.0578 20.1246 20.0508 20.1422 20.0439C20.8039 19.7745 21.4314 19.4261 22.0109 19.0068L22.1271 18.9217L22.3216 18.7698L22.3397 18.6705C22.3497 18.624 22.3577 18.5773 22.3658 18.5287L22.3898 18.3869C22.498 17.682 22.5241 16.9649 22.468 16.2559C22.4623 16.1787 22.4547 16.0997 22.4488 16.0381L22.4479 16.0291C22.4198 15.7616 22.3797 15.4902 22.3257 15.2208C22.2835 15.0101 22.2334 14.7975 22.1772 14.5868L22.1732 14.5728L22.1709 14.5653L22.1652 14.5463C22.1632 14.5392 22.1612 14.5326 22.1592 14.526L22.1552 14.5127L22.1532 14.5058C22.1502 14.4936 22.1467 14.4815 22.1432 14.4693C22.1397 14.4571 22.1362 14.445 22.1332 14.4328L22.1933 14.3599C22.2013 14.3498 22.2113 14.3376 22.2194 14.3275C22.2274 14.3174 22.2374 14.3052 22.2454 14.2951C22.5121 13.9568 22.7547 13.5983 22.9693 13.2276L23.0214 13.1364C23.0575 13.0716 23.0936 13.0048 23.1296 12.9379C23.4685 12.2978 23.7331 11.6151 23.9116 10.9081L23.9457 10.7684C23.9557 10.7299 23.9637 10.6914 23.9718 10.6529L23.9998 10.5253L23.9497 10.4341L23.9457 10.4261C23.9015 10.3451 23.8554 10.264 23.8013 10.1749C23.4404 9.57125 23.0113 9.01219 22.5261 8.51384L22.5181 8.50572L22.3677 8.35383C22.0229 8.01555 21.6459 7.70155 21.245 7.42198C21.2329 7.41394 21.2209 7.40582 21.2109 7.39771C21.1958 7.38758 21.1813 7.37745 21.1667 7.36732C21.1522 7.35719 21.1377 7.34706 21.1226 7.33694C21.1176 7.33285 21.112 7.32929 21.1065 7.32572C21.101 7.32219 21.0955 7.31867 21.0905 7.31463V7.28429V7.24173V7.19917C21.0825 6.71911 21.0344 6.23903 20.9522 5.77516L20.9422 5.71844C20.9321 5.66374 20.9222 5.61108 20.9121 5.56044V5.55233C20.7637 4.82512 20.5292 4.12019 20.2103 3.45375C20.1743 3.37475 20.1321 3.2917 20.0841 3.19851L20.0359 3.10534L19.9377 3.06887C19.8494 3.03444 19.7592 3.00203 19.671 2.97367C19.3462 2.86023 19.0114 2.76705 18.6806 2.69413C18.3437 2.61918 17.9989 2.56448 17.652 2.53005C17.5818 2.52195 17.5077 2.51587 17.4294 2.50979C16.9121 2.47131 16.3868 2.47738 15.8676 2.53207C15.8374 2.5341 15.8054 2.53815 15.7753 2.5422C15.7693 2.5341 15.7633 2.526 15.7553 2.51992C15.4345 2.14112 15.0816 1.78866 14.7086 1.47265C14.6505 1.42404 14.5924 1.37542 14.5382 1.33086L14.5342 1.32681C13.9547 0.860905 13.3192 0.465902 12.6435 0.155976C12.5633 0.119514 12.4771 0.0810263 12.3808 0.0405132L12.2866 0ZM10.3818 1.90412L10.3829 1.90332C10.4067 1.88536 10.4304 1.86742 10.4561 1.85146L10.5463 1.78865C11.0635 1.43012 11.625 1.13234 12.2144 0.901417H12.2205C12.2307 0.895509 12.2399 0.891754 12.2495 0.887798L12.2606 0.883187C12.2676 0.886225 12.2751 0.88977 12.2826 0.893315C12.2901 0.89686 12.2976 0.900405 12.3047 0.903443C12.9121 1.18298 13.4856 1.53545 14.0089 1.95476L14.0209 1.96489L14.072 2.00688C14.1105 2.03843 14.1479 2.06899 14.1813 2.09858C14.4099 2.29305 14.6304 2.50169 14.839 2.72249C14.3979 2.82377 13.9648 2.95949 13.5477 3.12762L13.5398 3.13167C13.4234 3.17826 13.3292 3.21878 13.243 3.25726L13.1026 3.32006L13.0806 3.33019C12.8119 3.45577 12.5433 3.59757 12.2866 3.75152C12.0521 3.59352 11.8074 3.44362 11.5588 3.3079L11.5388 3.29575L11.4835 3.26652C11.4111 3.2281 11.3333 3.18687 11.244 3.1418L11.236 3.13775C10.7227 2.88454 10.1814 2.67995 9.62601 2.52802C9.86456 2.3052 10.1152 2.09858 10.3779 1.90615V1.90817L10.3818 1.90412ZM4.13769 5.30949C4.13176 5.3333 4.12601 5.35636 4.12027 5.37812L4.12828 5.3761C4.04408 5.71033 3.98192 6.0547 3.94182 6.40108C4.46312 6.15395 5.01049 5.95746 5.56788 5.81567C5.67214 5.78934 5.78041 5.763 5.89068 5.74072C6.15935 5.68197 6.43002 5.63741 6.7027 5.605C6.73077 5.60095 6.75884 5.5969 6.78692 5.59487V5.59082C6.9032 5.25254 7.04359 4.91628 7.20395 4.59217C7.25007 4.49696 7.30017 4.39771 7.35432 4.30047V4.29642C7.58092 3.87509 7.84155 3.46793 8.13223 3.08711C7.81144 3.04862 7.49064 3.02836 7.16985 3.02836C7.10969 3.02836 7.04156 3.03039 6.97741 3.03241H6.96335C6.28967 3.04659 5.618 3.14787 4.96437 3.33221C4.95034 3.33829 4.93429 3.34234 4.91826 3.34639L4.89419 3.38893C4.58542 3.95409 4.34282 4.55368 4.1724 5.17759C4.15953 5.22179 4.14831 5.26683 4.13769 5.30949ZM8.87409 3.4659L9.05653 3.22688L9.32925 3.30588L9.3433 3.30993C9.87463 3.4497 10.3919 3.64214 10.8811 3.88522L10.9232 3.90547C10.9723 3.93125 11.0195 3.95509 11.0628 3.97699L11.0656 3.97839L11.1498 4.02498C11.2781 4.09386 11.4044 4.16678 11.5287 4.24376L11.4966 4.27009C10.9874 4.68535 10.5162 5.16138 10.1012 5.68197L10.0511 5.74275C10.035 5.763 10.0209 5.78123 10.007 5.79947L9.87463 5.97772L9.72621 5.93316C9.65808 5.9129 9.59191 5.89467 9.51973 5.87644C8.91825 5.72047 8.30266 5.62526 7.69314 5.59285H7.65108C7.73325 5.37812 7.82751 5.16746 7.92778 4.96084C7.97187 4.86968 8.01799 4.77853 8.06613 4.6894L8.07612 4.67117C8.30468 4.24781 8.57335 3.84268 8.87214 3.4659H8.87409ZM15.5351 3.41563L15.5367 3.41729H15.5427L15.6931 3.64416L15.7051 3.66037C16.0259 4.11614 16.2986 4.60027 16.5191 5.10466V5.11074C16.5593 5.19582 16.5913 5.27279 16.6194 5.34571L16.6355 5.3842C16.6956 5.54018 16.7538 5.69615 16.8039 5.85416C16.1202 5.8339 15.4264 5.89264 14.7468 6.02634L14.6024 6.05672C14.5903 6.06006 14.5776 6.06278 14.5646 6.06557C14.5539 6.06786 14.5431 6.07019 14.5322 6.07293L14.3859 6.10331L14.3036 5.97772C14.2616 5.91492 14.2234 5.85821 14.1834 5.80352V5.79947C13.8064 5.26874 13.3773 4.77853 12.9061 4.34302C13.0826 4.24578 13.2631 4.1526 13.4435 4.06955L13.5758 4.0108C13.654 3.97637 13.7402 3.93991 13.8505 3.89534L13.8886 3.88116C14.3277 3.70898 14.7849 3.57327 15.25 3.48008L15.5351 3.41563ZM17.3673 3.33019L17.4225 3.33475C17.4717 3.33872 17.5182 3.34248 17.5638 3.34842H17.5698C17.8846 3.38083 18.1993 3.42944 18.5061 3.49832C18.8068 3.56314 19.1096 3.65024 19.4064 3.75152H19.4124L19.4221 3.75582C19.4322 3.76037 19.4418 3.76464 19.4525 3.76773C19.4585 3.78191 19.4645 3.79609 19.4725 3.81229C19.7592 4.41189 19.9718 5.04794 20.1061 5.70223L20.1101 5.72654L20.1462 5.91492L20.1762 6.09724C20.2103 6.31601 20.2344 6.54086 20.2504 6.76368C19.8475 6.55706 19.4304 6.38285 19.0074 6.24105C18.9131 6.20865 18.8128 6.17826 18.6945 6.14383L18.6625 6.1337H18.6565C18.3357 6.04052 18.0068 5.96556 17.6781 5.91087C17.5998 5.63538 17.5056 5.35787 17.3973 5.08643V5.08035C17.3811 5.04274 17.365 5.00381 17.3481 4.96329C17.3232 4.90343 17.2969 4.8401 17.267 4.77245C17.0445 4.26604 16.7738 3.77583 16.461 3.31398C16.7638 3.30183 17.0665 3.3079 17.3673 3.33019ZM20.3808 7.76232L20.3146 7.72787V7.7259L20.2765 7.70564L20.1181 7.62462C19.679 7.38147 19.2199 7.17891 18.7528 7.02499L18.6818 7.0026C18.6193 6.98276 18.5534 6.96186 18.4781 6.93991L18.4359 6.92776C18.2093 6.86294 17.9768 6.80622 17.7422 6.76165C17.8324 7.42001 17.8525 8.09453 17.8004 8.76905C17.7963 8.83391 17.7903 8.9028 17.7823 8.98784L17.7683 9.1398L17.9106 9.21271L17.9226 9.21878C17.9267 9.22082 17.9367 9.22689 17.9367 9.22689L17.9948 9.25724C18.0249 9.27347 18.057 9.29168 18.0891 9.31194H18.0931C18.6966 9.64825 19.264 10.0513 19.7793 10.5152C19.8535 10.3349 19.9197 10.1506 19.9798 9.96423C20.0139 9.85885 20.0419 9.76569 20.066 9.6786L20.1001 9.55304C20.2284 9.07091 20.3146 8.57058 20.3567 8.06616V8.04392L20.3808 7.82915L20.3868 7.78666V7.76838L20.3808 7.76232ZM17.9588 12.9561L17.4715 13.4565L17.8004 14.2971C18.0269 14.8886 18.1873 15.5004 18.2775 16.1141L18.2835 16.1567L18.2855 16.1713C18.2889 16.1974 18.2925 16.2249 18.2976 16.2539C18.2555 16.2701 18.2154 16.2843 18.1753 16.2964C17.5958 16.4909 16.9903 16.6205 16.3788 16.6833L16.3287 16.6874C16.2946 16.6914 16.2565 16.6955 16.2164 16.6975L15.4424 16.7522L15.23 17.4328L15.1678 17.6212L15.1437 17.6901C14.9493 18.2492 14.6986 18.786 14.3999 19.2863L14.3859 19.3106C14.3618 19.3532 14.3337 19.3977 14.3016 19.4463L14.1954 19.4038C13.6099 19.1709 13.0485 18.869 12.5313 18.5105C12.5121 18.498 12.4948 18.4856 12.4775 18.4732L12.453 18.4558L12.3828 18.4072L11.7874 17.9696L11.1899 18.3646C11.1575 18.387 11.1218 18.4093 11.0796 18.4357L11.0315 18.4659C10.5062 18.786 9.95079 19.0473 9.3774 19.2438H9.37132C9.31724 19.264 9.26106 19.2843 9.20697 19.3005C9.20083 19.2902 9.19522 19.2799 9.18962 19.2696C9.1842 19.2597 9.17878 19.2497 9.17287 19.2398L9.14681 19.1891C8.85208 18.6381 8.61744 18.0487 8.44702 17.4348L8.43703 17.4004L8.42918 17.3706L8.41768 17.327L8.40698 17.287L8.22447 16.5395L7.69118 16.4726C7.60293 16.4625 7.51475 16.4504 7.4265 16.4382C7.40945 16.4362 7.39242 16.4337 7.37539 16.4311C7.35835 16.4286 7.34132 16.4261 7.32427 16.4241C7.02151 16.3774 6.71875 16.3106 6.422 16.2296C6.1393 16.1526 5.85659 16.0594 5.58592 15.9541L5.54381 15.9379C5.50943 15.9249 5.47505 15.9108 5.43993 15.8964L5.39745 15.8791C5.40547 15.8346 5.41549 15.786 5.42753 15.7292L5.45359 15.6118C5.5779 15.0446 5.76436 14.4875 6.00496 13.9528C6.01313 13.9335 6.02592 13.9068 6.03894 13.8795L6.0571 13.8413L6.0611 13.8332C6.10684 13.7351 6.14353 13.6368 6.17633 13.549L6.1814 13.5354L6.35985 13.0554L6.00897 12.6968L5.91875 12.6016C5.87263 12.551 5.83053 12.5044 5.79043 12.4558C5.58391 12.2147 5.38943 11.9636 5.21098 11.7063C5.04457 11.4632 4.89018 11.214 4.75585 10.9649L4.72176 10.9001L4.66763 10.7968C4.66763 10.794 4.66584 10.7913 4.66405 10.7886C4.66316 10.7873 4.66228 10.786 4.66162 10.7846L4.68166 10.7684L4.80999 10.6651C5.25309 10.3147 5.73629 10.0088 6.24757 9.75355L6.36988 9.69483C6.42601 9.66646 6.47614 9.64415 6.52626 9.62185L7.14581 9.34434V8.6617V8.61314V8.5564C7.14183 8.51179 7.1398 8.47332 7.1398 8.43691V8.4146C7.12778 7.81299 7.17789 7.20933 7.29017 6.62391L7.32022 6.47401C7.32427 6.4497 7.33028 6.42539 7.33629 6.40108C7.39841 6.40108 7.46458 6.40311 7.5448 6.40716L7.65911 6.41121C8.21447 6.4416 8.77389 6.5287 9.32122 6.6705C9.37552 6.68461 9.42266 6.69751 9.46537 6.70919L9.5017 6.71911L10.1994 6.92776L10.6686 6.28765C10.6686 6.28765 10.6846 6.26739 10.6926 6.25523L10.7628 6.17016C11.1377 5.70425 11.5588 5.27887 12.012 4.90818L12.1162 4.82512C12.1288 4.81381 12.1424 4.80348 12.1555 4.79345L12.1723 4.78056L12.1864 4.79271C12.2265 4.82714 12.2666 4.86361 12.3127 4.90615L12.3307 4.92236C12.7698 5.32546 13.1688 5.77921 13.5197 6.2755L13.5578 6.32816L13.5618 6.33221C13.5838 6.3626 13.6059 6.39501 13.6279 6.42944L14.0149 7.02094L14.7007 6.87712C14.7307 6.87104 14.7607 6.86496 14.7888 6.85686C14.8269 6.84876 14.867 6.84066 14.9092 6.83255C15.5447 6.70696 16.1944 6.65429 16.8239 6.67658H16.8399C16.862 6.67658 16.8841 6.67657 16.9061 6.6786C16.9121 6.71129 16.9174 6.74688 16.9233 6.78623C16.9272 6.81271 16.9314 6.84089 16.9362 6.87104C17.0184 7.47061 17.0364 8.08641 16.9883 8.70023V8.73263L16.9863 8.7387C16.9849 8.76998 16.9815 8.80531 16.9775 8.84673L16.9723 8.9028L16.9021 9.61988L17.5257 9.93586C17.5257 9.93586 17.5437 9.94602 17.5537 9.95209L17.7061 10.0351C18.2174 10.3187 18.7006 10.659 19.1437 11.0439L19.254 11.1432C19.28 11.1654 19.3041 11.1877 19.3282 11.21C19.3144 11.2343 19.2994 11.2593 19.283 11.2864C19.2708 11.3068 19.2577 11.3283 19.244 11.3518C18.7848 12.1074 18.1753 12.7414 18.1071 12.8123C18.0664 12.8548 18.0307 12.8904 18.0026 12.9183L17.9708 12.9501L17.9648 12.9561H17.9588ZM12.0001 13.5218C12.2913 13.3233 12.5681 13.0938 12.8258 12.8335C13.0837 12.573 13.3109 12.2934 13.5075 11.9991C13.311 11.7048 13.0838 11.4253 12.8261 11.1649C12.5682 10.9045 12.2914 10.675 12 10.4764C11.7087 10.675 11.4319 10.9044 11.1742 11.1648C10.9163 11.4252 10.6891 11.7048 10.4925 11.9992C10.6891 12.2933 10.9162 12.573 11.174 12.8333C11.4319 13.0938 11.7087 13.3232 12.0001 13.5218ZM6.31975 8.44298V8.43691L6.31774 8.43281C6.3037 7.77043 6.35784 7.1101 6.48215 6.46388C6.3378 6.48616 6.19344 6.51452 6.04907 6.54491C5.94883 6.56517 5.85259 6.58745 5.75835 6.61176C5.23504 6.74545 4.72577 6.92978 4.24057 7.16473H4.23655L3.96989 7.28831L3.98192 7.59017C3.99194 8.09248 4.04809 8.59288 4.14834 9.07903C4.16839 9.17826 4.19044 9.2775 4.2145 9.37476L4.22252 9.40715C4.26863 9.5915 4.32277 9.77585 4.38092 9.95611C4.84608 9.59757 5.35133 9.28159 5.88266 9.01622L6.00095 8.95947L6.04445 8.93872C6.09596 8.91411 6.14431 8.89101 6.19143 8.87033L6.32376 8.81161V8.66579V8.64554V8.6334V8.62528V8.61512C6.31975 8.55033 6.31975 8.49358 6.31975 8.44298ZM1.59598 12.1925L1.55187 12.1013C1.52981 12.0567 1.50776 12.0121 1.48771 11.9656L1.46565 11.9169C1.19498 11.3234 0.992472 10.6955 0.868165 10.0493C0.86616 10.0351 0.862149 10.0189 0.858138 10.0027L0.956382 9.85885C1.32129 9.33827 1.74234 8.86228 2.21151 8.44495C2.26564 8.39639 2.31778 8.35179 2.3699 8.30725C2.62253 8.09248 2.8912 7.89197 3.1719 7.70762C3.18995 8.2282 3.2501 8.74682 3.35436 9.25117C3.37641 9.35852 3.40047 9.46792 3.42654 9.57125V9.57527C3.50674 9.89739 3.60298 10.2154 3.71526 10.5253C3.71726 10.5314 3.71977 10.538 3.72227 10.5446C3.72478 10.5511 3.72729 10.5577 3.72929 10.5638C3.73004 10.566 3.73106 10.5686 3.73215 10.5713C3.734 10.5759 3.73605 10.581 3.73731 10.5861C3.72929 10.5942 3.72127 10.6023 3.71325 10.6124C3.70549 10.6223 3.69585 10.632 3.68614 10.6419L3.68518 10.6428C3.48468 10.8555 3.29221 11.0844 3.10975 11.3234L3.01151 11.4551C2.97742 11.4997 2.94534 11.5442 2.91326 11.5909C2.59447 12.0426 2.31377 12.5267 2.08119 13.029C1.90274 12.7596 1.74034 12.4801 1.59598 12.1925ZM4.6576 15.4375C4.79595 14.8157 4.99845 14.2019 5.26312 13.6145L5.26512 13.6165C5.27739 13.5881 5.29732 13.5459 5.31554 13.5073L5.32327 13.4909C5.35535 13.422 5.38542 13.343 5.41349 13.266L5.39144 13.2437L5.32126 13.1688C5.27314 13.1161 5.22502 13.0635 5.1769 13.0067C4.95034 12.7455 4.7358 12.4679 4.54131 12.1864C4.37289 11.9433 4.21651 11.6901 4.07616 11.4369C3.96588 11.5625 3.85962 11.6921 3.75736 11.8258L3.66112 11.9534C3.63305 11.9939 3.60298 12.0365 3.57691 12.0729C3.27416 12.5003 3.01151 12.9602 2.79496 13.4402L2.78895 13.4524L2.66665 13.7117L2.86714 13.9345C3.20398 14.3194 3.5749 14.6759 3.9739 14.9899L4.10022 15.0871C4.12094 15.1022 4.14232 15.118 4.16512 15.1349L4.21851 15.1742C4.35886 15.2775 4.50322 15.3768 4.65159 15.4699L4.6576 15.4375ZM3.87165 18.9034L3.7734 18.8589L3.75598 18.851C3.74043 18.8441 3.72537 18.8374 3.70925 18.8285L3.68318 18.8163C3.0877 18.5348 2.5263 18.1803 2.01903 17.7671L1.98294 17.7367L1.97693 17.686C1.91076 17.0196 1.9268 16.3471 2.02304 15.6867V15.6806C2.03165 15.6198 2.04173 15.5589 2.05076 15.5044L2.05512 15.478V15.4619C2.11327 15.1418 2.18946 14.8217 2.28369 14.5078C2.64459 14.921 3.04559 15.2998 3.47265 15.6381L3.60499 15.7394C3.64909 15.7738 3.6932 15.8062 3.73932 15.8386C3.98393 16.0169 4.24057 16.185 4.50322 16.339C4.51525 16.3461 4.52778 16.3532 4.54031 16.3602C4.55284 16.3673 4.56537 16.3744 4.5774 16.3815V16.4079C4.55736 16.734 4.55335 17.0642 4.56939 17.3923C4.57325 17.4936 4.58081 17.6005 4.58852 17.7095L4.58944 17.7225C4.63154 18.237 4.71775 18.7516 4.84608 19.2559C4.51525 19.1587 4.18844 19.0392 3.87165 18.8994V18.9034ZM5.68216 19.2215L5.74632 19.4727V19.4768L6.04105 19.5152C6.45007 19.578 6.8651 19.6104 7.2741 19.6104C7.38443 19.6104 7.49665 19.6084 7.60496 19.6044C7.7032 19.6003 7.79942 19.5942 7.9057 19.5861C8.07214 19.5719 8.23655 19.5557 8.4009 19.5314C8.09017 18.942 7.84155 18.3099 7.66107 17.6557C7.64864 17.6147 7.63861 17.5751 7.62818 17.5338L7.619 17.4977L7.61495 17.4814C7.61299 17.4794 7.61299 17.4713 7.61299 17.4713L7.57086 17.2971C7.49726 17.2883 7.42365 17.2779 7.3487 17.2673L7.31624 17.2627C7.29865 17.2599 7.28148 17.2575 7.26454 17.2552C7.2448 17.2524 7.22538 17.2497 7.20597 17.2465C6.87313 17.1938 6.53829 17.1229 6.21348 17.0337C5.93278 16.9568 5.65409 16.8656 5.38141 16.7624C5.37539 16.9608 5.3774 17.1614 5.38542 17.3599L5.38926 17.4214C5.39407 17.499 5.39915 17.5807 5.40547 17.6637V17.6678C5.44757 18.1763 5.5378 18.6867 5.67214 19.181L5.68216 19.2215ZM18.4219 17.5544L18.4099 17.6901C18.3998 17.7913 18.3878 17.8906 18.3758 17.9858C18.3056 18.5125 18.1833 19.0331 18.0169 19.5334L17.9387 19.7927L17.9327 19.815L17.9267 19.8231L17.8144 19.8312L17.654 19.8414H17.632C17.1207 19.892 16.6014 19.892 16.0961 19.8414H16.0641C16.0325 19.8368 16.0044 19.8334 15.9788 19.8303L15.9538 19.8272L15.7973 19.8089C15.5688 19.7785 15.3422 19.738 15.1177 19.6874C15.4545 19.1222 15.7332 18.5165 15.9458 17.8865V17.8805C15.9698 17.8136 15.9919 17.7468 16.0139 17.6779L16.058 17.5341L16.2164 17.5219H16.2364H16.2525C16.2768 17.5194 16.3008 17.5172 16.3241 17.5151C16.3566 17.5121 16.3878 17.5093 16.4169 17.5058H16.4229C17.1106 17.4389 17.7883 17.293 18.4359 17.0763C18.4399 17.0763 18.444 17.0743 18.448 17.0723C18.444 17.2343 18.4359 17.3943 18.4239 17.5524L18.4219 17.5544ZM21.5677 18.3039L21.5818 18.2107L21.5797 18.2087C21.674 17.5827 21.6961 16.9466 21.6419 16.3167V16.2802C21.6379 16.2215 21.6319 16.1587 21.6259 16.1101C21.6018 15.867 21.5637 15.6198 21.5156 15.3727C21.5106 15.3505 21.5061 15.3283 21.5016 15.3061C21.4971 15.2838 21.4926 15.2614 21.4876 15.2391C21.1387 15.5753 20.7617 15.8832 20.3648 16.1587C20.2765 16.2215 20.1843 16.2822 20.092 16.341C19.8274 16.5112 19.5467 16.6691 19.264 16.8109C19.268 17.0844 19.258 17.3579 19.2359 17.6253L19.2239 17.7671C19.2139 17.8805 19.1998 17.9919 19.1858 18.0993C19.1176 18.6077 19.0074 19.1121 18.855 19.6003C19.1216 19.5294 19.3843 19.4463 19.6389 19.3491L19.7412 19.3106C19.7673 19.3005 19.7933 19.2904 19.8234 19.2741H19.8294C20.4289 19.031 21.0003 18.713 21.5257 18.3342L21.5677 18.3039ZM18.5623 13.9953L18.4279 13.653L18.5342 13.5436L18.5649 13.5129C18.5956 13.4824 18.6369 13.4412 18.6846 13.3917C18.8068 13.266 19.4405 12.5996 19.9357 11.7853L19.9477 11.7671C20.068 11.9169 20.1843 12.0729 20.2926 12.2289L20.3627 12.3322C20.4209 12.4173 20.473 12.4984 20.5232 12.5794L20.5833 12.6766C20.8279 13.0858 21.0405 13.5193 21.2149 13.9689L21.293 14.1533L21.3091 14.1918L21.3251 14.2303L21.3311 14.2445L21.3251 14.2505L21.3051 14.2688L21.275 14.2971L21.245 14.3275L21.1327 14.4348L21.1126 14.4531C20.7437 14.8299 20.3367 15.1742 19.9036 15.474L19.8825 15.4884C19.809 15.5386 19.7337 15.59 19.655 15.6381C19.4705 15.7556 19.278 15.8691 19.0815 15.9703C18.9813 15.2998 18.8068 14.6334 18.5603 13.9892L18.5623 13.9953ZM22.4058 12.5389C22.7126 11.9595 22.9512 11.3397 23.1156 10.6975L23.1196 10.6955L23.1317 10.6428C23.1277 10.6359 23.1233 10.6289 23.1188 10.6219C23.1142 10.6147 23.1096 10.6075 23.1056 10.6003C22.8008 10.0878 22.4379 9.60971 22.0329 9.18031L21.9447 9.08912L21.8043 8.94733C21.5958 8.74477 21.3772 8.5523 21.1487 8.37204C21.0986 8.844 21.0103 9.31399 20.8901 9.76978L20.854 9.90141C20.8259 9.99867 20.7958 10.102 20.7577 10.2174C20.6655 10.5051 20.5572 10.7907 20.4369 11.0662C20.6515 11.3234 20.854 11.5909 21.0384 11.8643L21.0444 11.8744L21.0456 11.8762C21.1032 11.9646 21.1571 12.0472 21.2068 12.1276L21.2169 12.1438C21.4655 12.5449 21.6841 12.9703 21.8705 13.4099C22.0088 13.2134 22.1371 13.0128 22.2575 12.8062L22.3236 12.6908C22.3375 12.6663 22.352 12.6391 22.3679 12.6092L22.3807 12.5854L22.4058 12.5389ZM17.4214 20.6942L17.4054 20.7266L17.3572 20.8177C17.237 21.0425 17.1026 21.2695 16.9563 21.4923C16.9162 21.551 16.8761 21.6097 16.8399 21.6644L16.7698 21.7657C16.4109 22.264 15.9959 22.7218 15.5367 23.125C15.5307 23.13 15.5252 23.1351 15.5197 23.1401C15.5141 23.1452 15.5086 23.1503 15.5026 23.1553L15.4485 23.1513C14.8069 23.1006 14.1693 22.9751 13.5578 22.7745L13.4515 22.7381L13.446 22.7362C13.4178 22.7266 13.3894 22.717 13.3593 22.7056C13.0866 22.6084 12.8159 22.495 12.5533 22.3673C13.0124 22.0757 13.4475 21.7435 13.8445 21.3748C13.8645 21.3555 13.8846 21.3368 13.9046 21.318C13.9247 21.2993 13.9448 21.2806 13.9648 21.2613L14.0851 21.1459C14.3036 20.9291 14.5142 20.6942 14.7147 20.449C15.0335 20.528 15.3623 20.5908 15.6911 20.6354L15.8515 20.6556L15.8569 20.6562C15.9093 20.6621 15.9616 20.668 16.0139 20.6719C16.4771 20.7164 16.9522 20.7225 17.4214 20.6942ZM11.7733 21.8872C11.8083 21.8649 11.8438 21.8418 11.8796 21.8183C11.9218 21.7907 11.9646 21.7627 12.0079 21.7353L12.0039 21.7333L12.02 21.7232C12.4731 21.4457 12.9001 21.1216 13.2891 20.763C13.3272 20.7286 13.3633 20.6942 13.3994 20.6597L13.5338 20.528C13.65 20.4106 13.7643 20.289 13.8746 20.1634C13.237 19.9082 12.6275 19.58 12.0641 19.1891L12.0316 19.166C11.9957 19.1405 11.9617 19.1164 11.9278 19.0898H11.9257L11.9147 19.0821L11.9087 19.0777C11.9032 19.0736 11.8976 19.0696 11.8916 19.0655L11.7633 18.9703L11.637 19.0554C11.5768 19.0939 11.5187 19.1304 11.4565 19.1688C10.9072 19.5051 10.3257 19.7826 9.72824 19.9932C9.86659 20.1715 10.011 20.3437 10.1613 20.5078C10.2295 20.5848 10.2976 20.6556 10.3658 20.7245C10.7227 21.0891 11.1137 21.4194 11.5307 21.709L11.5468 21.7212L11.7733 21.8872ZM9.95282 22.5982C9.89063 22.6165 9.82648 22.6347 9.76632 22.651L9.63803 22.6853C9.33729 22.7623 9.03047 22.8211 8.72777 22.8596C8.42703 22.9001 8.11826 22.9244 7.81346 22.9304H7.76532C7.75926 22.9254 7.75372 22.9198 7.74791 22.9139C7.7422 22.9081 7.73623 22.9021 7.72927 22.896C7.26411 22.4362 6.85308 21.9197 6.50822 21.3606C6.48071 21.3169 6.45514 21.2732 6.4296 21.2296L6.42802 21.2269L6.40196 21.1824C6.24356 20.9109 6.1012 20.6273 5.97288 20.3356C6.52426 20.4166 7.08565 20.447 7.63703 20.4247C7.74128 20.4207 7.85155 20.4146 7.96984 20.4044C8.28267 20.3802 8.59941 20.3376 8.91224 20.2789C9.11271 20.5564 9.32925 20.8237 9.55781 21.0709C9.63398 21.154 9.71021 21.235 9.78435 21.31C10.1232 21.6543 10.4902 21.9723 10.8791 22.258C10.5764 22.3896 10.2656 22.503 9.94876 22.5963L9.95282 22.5982Z" fill="currentColor"/>
</g>
<defs>
<clipPath id="clip0_673_21">
<rect width="24" height="24" fill="white"/>
</clipPath>
</defs>
</svg>
